<svg xmlns="http://www.w3.org/2000/svg" viewBox="0 0 32 32" width="32" height="32">
  <defs>
    <linearGradient id="briefcaseGrad" x1="0%" y1="0%" x2="100%" y2="100%">
      <stop offset="0%" style="stop-color:#2563eb;stop-opacity:1" />
      <stop offset="100%" style="stop-color:#1d4ed8;stop-opacity:1" />
    </linearGradient>
    <linearGradient id="gearGrad" x1="0%" y1="0%" x2="100%" y2="100%">
      <stop offset="0%" style="stop-color:#f59e0b;stop-opacity:1" />
      <stop offset="100%" style="stop-color:#d97706;stop-opacity:1" />
    </linearGradient>
  </defs>
  
  <!-- Background circle -->
  <circle cx="16" cy="16" r="15" fill="#ffffff" stroke="#e5e7eb" stroke-width="1"/>
  
  <!-- Briefcase body -->
  <rect x="8" y="12" width="16" height="10" rx="1" fill="url(#briefcaseGrad)"/>
  
  <!-- Briefcase handle -->
  <rect x="14" y="8" width="4" height="4" rx="2" fill="url(#briefcaseGrad)"/>
  <rect x="15" y="6" width="2" height="2" rx="1" fill="url(#briefcaseGrad)"/>
  
  <!-- Briefcase latch -->
  <rect x="15" y="10" width="2" height="2" rx="0.5" fill="#ffffff"/>
  
  <!-- Automation gear -->
  <g transform="translate(22, 6)">
    <circle cx="0" cy="0" r="3" fill="url(#gearGrad)" opacity="0.8"/>
    <rect x="-0.5" y="-4" width="1" height="8" fill="#ffffff" opacity="0.7"/>
    <rect x="-4" y="-0.5" width="8" height="1" fill="#ffffff" opacity="0.7"/>
    <rect x="-2.8" y="-2.8" width="1" height="5.6" fill="#ffffff" opacity="0.7" transform="rotate(45)"/>
    <rect x="-2.8" y="-2.8" width="5.6" height="1" fill="#ffffff" opacity="0.7" transform="rotate(45)"/>
  </g>
  
  <!-- Document/AI element -->
  <g transform="translate(6, 6)">
    <rect x="0" y="0" width="3" height="4" rx="0.5" fill="#10b981" opacity="0.8"/>
    <rect x="0.5" y="1" width="2" height="0.5" fill="#ffffff" opacity="0.7"/>
    <rect x="0.5" y="2" width="1.5" height="0.5" fill="#ffffff" opacity="0.7"/>
    <rect x="0.5" y="3" width="2" height="0.5" fill="#ffffff" opacity="0.7"/>
  </g>
  
  <!-- Connection lines (automation flow) -->
  <path d="M10 8 L14 8" stroke="#6b7280" stroke-width="0.5" opacity="0.6"/>
  <path d="M18 8 L22 8" stroke="#6b7280" stroke-width="0.5" opacity="0.6"/>
</svg>
